<?xml version="1.0" encoding="UTF-8"?>
<svg id="Layer_1" xmlns="http://www.w3.org/2000/svg" version="1.1" viewBox="0 0 48 48">
  <!-- Generator: Adobe Illustrator 29.0.1, SVG Export Plug-In . SVG Version: 2.1.0 Build 192)  -->
  <defs>
    <style>
      .st0 {
        fill: #fff;
      }
    </style>
  </defs>
  <path class="st0" d="M24,4C13,4,4,13,4,24s9,20,20,20,20-9,20-20S35,4,24,4ZM24,7c9.4,0,17,7.6,17,17s-6,15.3-14,16.7v-11.7h3.6c.5,0,.9-.4,1-.9l.4-3c0-.3,0-.6-.2-.8-.2-.2-.5-.3-.7-.3h-4v-3.5c0-1.1.9-2,2-2h2c.6,0,1-.4,1-1v-3.4c0-.5-.4-1-.9-1,0,0-1.5-.1-3.3-.1-4.4,0-6.8,2.6-6.8,7.4v3.6h-4c-.6,0-1,.4-1,1v3c0,.6.4,1,1,1h4v11.7c-8-1.4-14-8.3-14-16.7S14.6,7,24,7Z"/>
</svg>