<?xml version="1.0" encoding="UTF-8"?>
<svg id="Layer_1" xmlns="http://www.w3.org/2000/svg" version="1.1" viewBox="0 0 48 48">
  <!-- Generator: Adobe Illustrator 29.0.1, SVG Export Plug-In . SVG Version: 2.1.0 Build 192)  -->
  <defs>
    <style>
      .st0 {
        fill: #fff;
      }
    </style>
  </defs>
  <path class="st0" d="M16.5,5c-6.3,0-11.5,5.2-11.5,11.5v15c0,6.3,5.2,11.5,11.5,11.5h15c6.3,0,11.5-5.2,11.5-11.5v-15c0-6.3-5.2-11.5-11.5-11.5h-15ZM16.5,8h15c4.7,0,8.5,3.8,8.5,8.5v15c0,4.7-3.8,8.5-8.5,8.5h-15c-4.7,0-8.5-3.8-8.5-8.5v-15c0-4.7,3.8-8.5,8.5-8.5ZM34,12c-1.1,0-2,.9-2,2s.9,2,2,2,2-.9,2-2-.9-2-2-2ZM24,14c-5.5,0-10,4.5-10,10s4.5,10,10,10,10-4.5,10-10-4.5-10-10-10ZM24,17c3.9,0,7,3.1,7,7s-3.1,7-7,7-7-3.1-7-7,3.1-7,7-7Z"/>
</svg>