<?xml version="1.0" encoding="UTF-8"?>
<svg id="Layer_1" xmlns="http://www.w3.org/2000/svg" version="1.1" viewBox="0 0 48 48">
  <!-- Generator: Adobe Illustrator 29.0.1, SVG Export Plug-In . SVG Version: 2.1.0 Build 192)  -->
  <defs>
    <style>
      .st0 {
        fill: #fff;
      }
    </style>
  </defs>
  <path class="st0" d="M12.5,6c-3.6,0-6.5,2.9-6.5,6.5v23c0,3.6,2.9,6.5,6.5,6.5h23c3.6,0,6.5-2.9,6.5-6.5V12.5c0-3.6-2.9-6.5-6.5-6.5H12.5ZM12.5,9h23c2,0,3.5,1.5,3.5,3.5v23c0,2-1.5,3.5-3.5,3.5H12.5c-2,0-3.5-1.5-3.5-3.5V12.5c0-2,1.5-3.5,3.5-3.5ZM13.8,14l7.7,11.1-7.7,8.9h2l6.6-7.6,5.4,7.6h6.4l-8.2-11.8,7.1-8.2h-2l-6,6.9-4.9-6.9h-6.4ZM16.9,15.7h2.6l11.7,16.6h-2.6l-11.7-16.6Z"/>
</svg>